<svg xmlns="http://www.w3.org/2000/svg" xmlns:xlink="http://www.w3.org/1999/xlink" width="512" zoomAndPan="magnify" viewBox="0 0 384 383.999986" height="512" preserveAspectRatio="xMidYMid meet" version="1.0"><defs><clipPath id="b48dd77959"><path d="M 6.960938 0 L 376.710938 0 L 376.710938 384 L 6.960938 384 Z M 6.960938 0 " clip-rule="nonzero"/></clipPath><clipPath id="fc3e14cdc8"><path d="M 176.976562 176.410156 L 206.976562 176.410156 L 206.976562 207.910156 L 176.976562 207.910156 Z M 176.976562 176.410156 " clip-rule="nonzero"/></clipPath></defs><g clip-path="url(#b48dd77959)"><path fill="#000000" d="M 376.683594 362.550781 L 376.683594 372.179688 C 376.542969 372.371094 376.429688 372.578125 376.347656 372.804688 C 375.535156 376.820312 373.136719 379.496094 369.421875 381.035156 C 367.691406 381.71875 365.894531 382.078125 364.035156 382.117188 C 361.25 382.179688 358.507812 381.863281 355.808594 381.171875 C 350.929688 380.015625 346.34375 378.089844 341.898438 375.804688 C 335.441406 372.441406 329.308594 368.5625 323.503906 364.171875 C 312.5 356 302.460938 346.738281 292.917969 336.925781 C 281.65625 325.347656 271.226562 313.050781 261.316406 300.300781 C 247.289062 282.242188 234.410156 263.390625 222.308594 243.992188 C 220.191406 240.597656 218.125 237.171875 216.015625 233.769531 C 215.8125 233.4375 215.714844 232.921875 215.027344 233.015625 C 214.644531 233.648438 214.214844 234.316406 213.820312 235.007812 C 210.734375 240.429688 208.242188 246.113281 206.339844 252.054688 C 202.699219 263.222656 200.589844 274.710938 199.007812 286.328125 C 198.390625 290.84375 197.851562 295.367188 197.40625 299.898438 C 196.882812 304.984375 196.4375 310.074219 196.011719 315.164062 C 195.6875 319.09375 195.429688 323.027344 195.171875 326.960938 C 194.832031 332.183594 194.515625 337.40625 194.214844 342.632812 C 194.011719 346.199219 193.867188 349.769531 193.707031 353.335938 C 193.355469 361.332031 193.003906 369.332031 192.65625 377.332031 C 192.558594 379.542969 192.40625 381.75 192.269531 383.960938 C 192.128906 383.679688 192.058594 383.386719 192.066406 383.074219 C 191.703125 374.707031 191.371094 366.335938 190.980469 357.96875 C 190.59375 349.601562 190.179688 341.226562 189.746094 332.859375 C 189.628906 330.648438 189.488281 328.433594 189.324219 326.222656 C 188.894531 320.574219 188.488281 314.921875 187.988281 309.277344 C 187.511719 303.886719 186.996094 298.496094 186.371094 293.101562 C 185.628906 286.683594 184.707031 280.289062 183.535156 273.925781 C 182.273438 266.765625 180.554688 259.714844 178.386719 252.773438 C 176.351562 246.421875 173.828125 240.289062 170.445312 234.527344 C 170.113281 233.949219 169.734375 233.398438 169.292969 232.695312 C 168.90625 233.226562 168.609375 233.601562 168.359375 234.011719 C 166.972656 236.261719 165.605469 238.53125 164.214844 240.785156 C 150.429688 263.050781 135.6875 284.664062 119.386719 305.167969 C 108.523438 318.820312 97.027344 331.902344 84.484375 344.039062 C 76.511719 351.742188 68.167969 359.058594 59.160156 365.535156 C 53.492188 369.703125 47.511719 373.355469 41.21875 376.496094 C 36.601562 378.742188 31.867188 380.609375 26.8125 381.566406 C 23.769531 382.140625 20.714844 382.371094 17.644531 381.757812 C 12.714844 380.765625 9.507812 377.90625 8.132812 373.046875 C 7.9375 372.269531 7.785156 371.484375 7.675781 370.691406 C 7.5625 370.019531 7.484375 369.34375 6.964844 368.832031 L 6.964844 366.617188 C 7.496094 366.03125 7.59375 365.300781 7.667969 364.5625 C 8.015625 361.429688 8.703125 358.378906 9.730469 355.402344 C 11.683594 349.464844 14.429688 343.898438 17.539062 338.503906 C 22.128906 330.683594 27.289062 323.257812 33.015625 316.226562 C 42.164062 304.820312 52.253906 294.277344 62.867188 284.265625 C 78.878906 269.152344 95.957031 255.363281 113.730469 242.378906 C 125.957031 233.4375 138.457031 224.902344 151.226562 216.765625 C 151.785156 216.40625 152.417969 216.132812 152.828125 215.609375 C 152.761719 215.441406 152.75 215.285156 152.671875 215.226562 C 152.230469 214.886719 151.789062 214.558594 151.328125 214.253906 C 147.351562 211.652344 143.164062 209.457031 138.761719 207.664062 C 129.773438 203.953125 120.433594 201.605469 110.921875 199.894531 C 105.597656 198.949219 100.234375 198.167969 94.878906 197.410156 C 91.417969 196.917969 87.917969 196.578125 84.429688 196.21875 C 81.1875 195.890625 77.9375 195.613281 74.6875 195.332031 C 70.839844 195 66.964844 194.660156 63.101562 194.386719 C 58.484375 194.058594 53.886719 193.777344 49.28125 193.503906 C 43.082031 193.121094 36.875 192.800781 30.671875 192.429688 C 29.171875 192.34375 27.675781 192.191406 26.179688 192.070312 C 27.582031 191.855469 28.992188 191.726562 30.410156 191.683594 C 36.433594 191.339844 42.453125 190.992188 48.472656 190.644531 C 52.648438 190.394531 56.824219 190.144531 61 189.832031 C 66.335938 189.445312 71.671875 189 77 188.511719 C 82.328125 188.023438 87.660156 187.515625 92.972656 186.882812 C 99.875 186.058594 106.746094 185.039062 113.566406 183.679688 C 120.644531 182.339844 127.585938 180.488281 134.390625 178.121094 C 140.34375 176.046875 145.96875 173.300781 151.265625 169.878906 C 151.820312 169.519531 152.441406 169.222656 152.910156 168.566406 C 152.636719 168.316406 152.351562 168.082031 152.054688 167.867188 C 150.875 167.097656 149.675781 166.324219 148.488281 165.554688 C 127.121094 151.757812 106.425781 137.019531 86.769531 120.84375 C 72.585938 109.175781 59.027344 96.839844 46.492188 83.398438 C 38.125 74.425781 30.28125 65.03125 23.375 54.871094 C 18.972656 48.394531 14.992188 41.671875 11.910156 34.460938 C 9.828125 29.578125 8.160156 24.566406 7.601562 19.242188 C 7.539062 18.59375 7.175781 17.980469 6.949219 17.347656 L 6.949219 15.121094 C 7.535156 14.648438 7.585938 13.964844 7.667969 13.289062 C 7.832031 11.871094 8.199219 10.511719 8.769531 9.203125 C 9.324219 7.847656 10.121094 6.652344 11.152344 5.613281 C 12.1875 4.578125 13.378906 3.777344 14.730469 3.21875 C 15.988281 2.695312 17.292969 2.34375 18.640625 2.175781 C 21.800781 1.746094 24.90625 2.101562 27.984375 2.777344 C 32.699219 3.820312 37.144531 5.609375 41.449219 7.734375 C 48.433594 11.171875 54.914062 15.410156 61.148438 20.058594 C 72.191406 28.28125 82.265625 37.585938 91.839844 47.453125 C 101.582031 57.492188 110.695312 68.070312 119.414062 79.03125 C 133.722656 97.023438 146.835938 115.859375 159.128906 135.277344 C 162.226562 140.164062 165.230469 145.113281 168.289062 150.023438 C 168.558594 150.460938 168.707031 151.042969 169.40625 151.207031 C 169.792969 150.609375 170.175781 150.050781 170.496094 149.472656 C 173.203125 144.765625 175.445312 139.84375 177.230469 134.714844 C 181.078125 123.867188 183.289062 112.652344 184.96875 101.308594 C 185.585938 97.109375 186.121094 92.890625 186.589844 88.675781 C 187.097656 84.207031 187.535156 79.738281 187.941406 75.261719 C 188.277344 71.640625 188.542969 68.019531 188.804688 64.398438 C 189.148438 59.546875 189.476562 54.691406 189.78125 49.835938 C 189.972656 46.757812 190.113281 43.675781 190.273438 40.613281 C 190.59375 34.339844 190.933594 28.070312 191.214844 21.792969 C 191.527344 14.863281 191.78125 7.894531 192.0625 0.9375 C 192.0625 0.652344 192.105469 0.363281 192.132812 0.078125 C 192.367188 2.042969 192.515625 4.003906 192.609375 5.96875 C 192.867188 11.691406 193.070312 17.414062 193.347656 23.132812 C 193.820312 32.789062 194.285156 42.445312 194.851562 52.09375 C 195.234375 58.980469 195.796875 65.855469 196.3125 72.730469 C 196.851562 79.976562 197.628906 87.195312 198.542969 94.40625 C 199.503906 102.042969 200.703125 109.640625 202.335938 117.164062 C 203.769531 124.046875 205.726562 130.773438 208.203125 137.351562 C 209.902344 141.855469 211.988281 146.171875 214.464844 150.296875 C 214.675781 150.640625 214.769531 151.136719 215.402344 151.132812 C 216.015625 150.492188 216.398438 149.644531 216.875 148.867188 C 225.722656 134.289062 235 119.984375 244.84375 106.042969 C 259.847656 84.789062 275.96875 64.453125 294.210938 45.832031 C 302.285156 37.511719 310.878906 29.769531 319.988281 22.601562 C 326.265625 17.710938 332.789062 13.203125 339.796875 9.417969 C 344.167969 6.988281 348.742188 5.039062 353.519531 3.5625 C 356.238281 2.734375 359.015625 2.226562 361.851562 2.042969 C 364.34375 1.839844 366.765625 2.15625 369.117188 3 C 372.964844 4.464844 375.433594 7.148438 376.320312 11.222656 C 376.40625 11.441406 376.523438 11.636719 376.671875 11.816406 L 376.671875 21.445312 C 376.527344 21.769531 376.40625 22.105469 376.308594 22.449219 C 376.09375 23.46875 376.003906 24.523438 375.703125 25.53125 C 375.003906 27.839844 374.300781 30.125 373.441406 32.359375 C 370.628906 39.632812 366.773438 46.351562 362.5 52.84375 C 355.886719 62.902344 348.296875 72.195312 340.183594 81.074219 C 328.707031 93.640625 316.296875 105.234375 303.3125 116.222656 C 286.917969 130.023438 269.839844 142.914062 252.074219 154.890625 C 245.808594 159.128906 239.445312 163.246094 233.132812 167.421875 C 232.597656 167.78125 231.925781 168.007812 231.59375 168.742188 C 232.183594 169.15625 232.726562 169.558594 233.289062 169.925781 C 236.601562 172.078125 240.0625 173.953125 243.675781 175.542969 C 251.242188 178.910156 259.15625 181.175781 267.222656 182.929688 C 273.058594 184.199219 278.929688 185.242188 284.851562 186.011719 C 289.792969 186.640625 294.738281 187.238281 299.691406 187.804688 C 302.5625 188.128906 305.460938 188.378906 308.324219 188.628906 C 312.171875 188.96875 316.050781 189.3125 319.914062 189.59375 C 324.332031 189.917969 328.761719 190.191406 333.175781 190.464844 C 338.945312 190.816406 344.71875 191.148438 350.488281 191.488281 L 358.511719 191.949219 C 358.226562 192.085938 357.925781 192.15625 357.609375 192.160156 C 351.835938 192.515625 346.066406 192.867188 340.296875 193.222656 C 335.445312 193.515625 330.589844 193.746094 325.742188 194.105469 C 318.871094 194.613281 312 195.160156 305.136719 195.804688 C 299.566406 196.324219 294.007812 196.960938 288.445312 197.628906 C 281.539062 198.4375 274.6875 199.589844 267.886719 201.039062 C 260.65625 202.578125 253.550781 204.535156 246.679688 207.300781 C 241.738281 209.238281 237.054688 211.675781 232.632812 214.617188 C 232.25 214.875 231.710938 215 231.6875 215.714844 C 232.273438 216.097656 232.878906 216.511719 233.5 216.90625 C 246.40625 225.175781 259.054688 233.824219 271.445312 242.859375 C 289.035156 255.757812 305.972656 269.429688 321.847656 284.449219 C 332.234375 294.273438 342.117188 304.578125 351.089844 315.722656 C 357.164062 323.257812 362.796875 331.105469 367.566406 339.546875 C 369.878906 343.550781 371.871094 347.703125 373.554688 352.007812 C 374.804688 355.28125 376.011719 358.578125 376.386719 362.105469 C 376.402344 362.269531 376.582031 362.40625 376.683594 362.550781 Z M 376.683594 362.550781 " fill-opacity="1" fill-rule="nonzero"/></g><g clip-path="url(#fc3e14cdc8)"><path fill="#000000" d="M 206.972656 206.152344 L 206.972656 206.945312 C 206.960938 206.960938 206.953125 206.976562 206.945312 206.996094 C 206.878906 207.324219 206.6875 207.542969 206.382812 207.671875 C 206.246094 207.726562 206.097656 207.757812 205.949219 207.757812 C 205.722656 207.765625 205.5 207.738281 205.28125 207.679688 C 204.882812 207.585938 204.511719 207.429688 204.152344 207.242188 C 203.628906 206.964844 203.128906 206.648438 202.660156 206.285156 C 201.765625 205.617188 200.953125 204.855469 200.175781 204.050781 C 199.261719 203.101562 198.417969 202.09375 197.613281 201.046875 C 196.476562 199.566406 195.429688 198.019531 194.449219 196.425781 C 194.277344 196.148438 194.109375 195.867188 193.9375 195.585938 C 193.921875 195.558594 193.914062 195.519531 193.859375 195.527344 C 193.828125 195.578125 193.792969 195.632812 193.757812 195.6875 C 193.507812 196.132812 193.308594 196.601562 193.152344 197.089844 C 192.859375 198.003906 192.6875 198.945312 192.558594 199.898438 C 192.507812 200.269531 192.464844 200.640625 192.429688 201.011719 C 192.386719 201.429688 192.347656 201.847656 192.316406 202.265625 C 192.289062 202.589844 192.265625 202.910156 192.246094 203.234375 C 192.21875 203.664062 192.191406 204.089844 192.167969 204.519531 C 192.152344 204.8125 192.140625 205.105469 192.128906 205.398438 C 192.097656 206.054688 192.070312 206.710938 192.042969 207.367188 C 192.035156 207.546875 192.023438 207.730469 192.011719 207.910156 C 192 207.886719 191.996094 207.863281 191.996094 207.835938 C 191.964844 207.152344 191.9375 206.464844 191.90625 205.777344 C 191.875 205.089844 191.839844 204.402344 191.804688 203.71875 C 191.796875 203.535156 191.785156 203.355469 191.773438 203.171875 C 191.738281 202.710938 191.703125 202.246094 191.664062 201.78125 C 191.625 201.339844 191.582031 200.898438 191.53125 200.457031 C 191.472656 199.929688 191.398438 199.40625 191.300781 198.882812 C 191.199219 198.292969 191.0625 197.714844 190.886719 197.148438 C 190.71875 196.625 190.515625 196.121094 190.242188 195.648438 C 190.214844 195.601562 190.183594 195.558594 190.148438 195.5 C 190.117188 195.542969 190.089844 195.574219 190.070312 195.609375 C 189.957031 195.792969 189.847656 195.976562 189.734375 196.164062 C 188.617188 197.988281 187.421875 199.761719 186.097656 201.445312 C 185.214844 202.566406 184.285156 203.640625 183.265625 204.636719 C 182.617188 205.265625 181.941406 205.867188 181.210938 206.398438 C 180.75 206.742188 180.265625 207.039062 179.753906 207.296875 C 179.382812 207.480469 178.996094 207.636719 178.585938 207.714844 C 178.339844 207.761719 178.09375 207.78125 177.84375 207.730469 C 177.441406 207.648438 177.183594 207.414062 177.070312 207.015625 C 177.054688 206.949219 177.042969 206.886719 177.035156 206.820312 C 177.023438 206.765625 177.019531 206.710938 176.976562 206.667969 L 176.976562 206.488281 C 177.019531 206.4375 177.027344 206.378906 177.035156 206.320312 C 177.0625 206.0625 177.117188 205.8125 177.199219 205.566406 C 177.359375 205.082031 177.582031 204.625 177.835938 204.179688 C 178.207031 203.539062 178.625 202.929688 179.089844 202.351562 C 179.832031 201.417969 180.652344 200.550781 181.511719 199.730469 C 182.8125 198.492188 184.195312 197.359375 185.640625 196.292969 C 186.628906 195.5625 187.644531 194.859375 188.679688 194.191406 C 188.726562 194.164062 188.777344 194.140625 188.8125 194.097656 C 188.804688 194.085938 188.804688 194.070312 188.796875 194.066406 C 188.761719 194.039062 188.726562 194.011719 188.6875 193.988281 C 188.367188 193.773438 188.027344 193.59375 187.667969 193.445312 C 186.941406 193.140625 186.183594 192.949219 185.410156 192.808594 C 184.980469 192.730469 184.542969 192.667969 184.109375 192.605469 C 183.828125 192.5625 183.542969 192.535156 183.261719 192.507812 C 183 192.480469 182.734375 192.457031 182.472656 192.433594 C 182.160156 192.40625 181.84375 192.378906 181.53125 192.355469 C 181.15625 192.328125 180.785156 192.308594 180.410156 192.285156 C 179.90625 192.253906 179.402344 192.226562 178.898438 192.195312 C 178.777344 192.1875 178.65625 192.175781 178.535156 192.167969 C 178.648438 192.148438 178.761719 192.136719 178.878906 192.136719 C 179.367188 192.105469 179.855469 192.078125 180.34375 192.050781 C 180.683594 192.027344 181.023438 192.007812 181.359375 191.984375 C 181.792969 191.953125 182.226562 191.914062 182.660156 191.875 C 183.089844 191.835938 183.523438 191.792969 183.953125 191.742188 C 184.515625 191.671875 185.070312 191.589844 185.625 191.476562 C 186.199219 191.367188 186.761719 191.214844 187.316406 191.023438 C 187.796875 190.851562 188.253906 190.625 188.683594 190.347656 C 188.730469 190.316406 188.78125 190.292969 188.816406 190.238281 C 188.796875 190.21875 188.773438 190.199219 188.75 190.179688 C 188.652344 190.117188 188.554688 190.054688 188.457031 189.992188 C 186.726562 188.859375 185.046875 187.648438 183.453125 186.324219 C 182.300781 185.367188 181.199219 184.351562 180.183594 183.25 C 179.503906 182.515625 178.867188 181.742188 178.308594 180.910156 C 177.949219 180.378906 177.628906 179.828125 177.378906 179.234375 C 177.207031 178.835938 177.074219 178.421875 177.027344 177.988281 C 177.023438 177.933594 176.992188 177.882812 176.976562 177.832031 L 176.976562 177.648438 C 177.023438 177.609375 177.027344 177.554688 177.035156 177.5 C 177.046875 177.382812 177.078125 177.269531 177.121094 177.164062 C 177.214844 176.929688 177.378906 176.769531 177.605469 176.671875 C 177.707031 176.628906 177.8125 176.601562 177.921875 176.585938 C 178.179688 176.550781 178.433594 176.582031 178.679688 176.636719 C 179.0625 176.722656 179.425781 176.867188 179.773438 177.042969 C 180.339844 177.324219 180.867188 177.671875 181.371094 178.054688 C 182.269531 178.726562 183.085938 179.492188 183.863281 180.300781 C 184.652344 181.125 185.390625 181.992188 186.101562 182.890625 C 187.261719 184.367188 188.324219 185.914062 189.324219 187.507812 C 189.574219 187.90625 189.816406 188.3125 190.066406 188.71875 C 190.085938 188.753906 190.097656 188.800781 190.15625 188.8125 C 190.1875 188.765625 190.21875 188.71875 190.246094 188.671875 C 190.464844 188.285156 190.644531 187.882812 190.789062 187.460938 C 191.101562 186.570312 191.28125 185.652344 191.417969 184.71875 C 191.46875 184.375 191.511719 184.03125 191.550781 183.683594 C 191.589844 183.316406 191.625 182.949219 191.660156 182.582031 C 191.6875 182.285156 191.707031 181.988281 191.730469 181.691406 C 191.757812 181.292969 191.785156 180.894531 191.808594 180.496094 C 191.824219 180.246094 191.835938 179.992188 191.847656 179.742188 C 191.875 179.226562 191.902344 178.710938 191.925781 178.195312 C 191.949219 177.628906 191.972656 177.054688 191.996094 176.484375 C 191.996094 176.460938 191.996094 176.4375 192 176.414062 C 192.019531 176.574219 192.03125 176.738281 192.039062 176.898438 C 192.058594 177.367188 192.074219 177.835938 192.097656 178.304688 C 192.136719 179.097656 192.175781 179.890625 192.21875 180.683594 C 192.25 181.246094 192.296875 181.8125 192.339844 182.375 C 192.382812 182.96875 192.445312 183.5625 192.519531 184.152344 C 192.597656 184.78125 192.695312 185.402344 192.828125 186.019531 C 192.945312 186.585938 193.101562 187.136719 193.304688 187.675781 C 193.441406 188.046875 193.609375 188.402344 193.8125 188.738281 C 193.828125 188.765625 193.835938 188.808594 193.886719 188.808594 C 193.9375 188.753906 193.96875 188.6875 194.007812 188.621094 C 194.726562 187.425781 195.476562 186.253906 196.277344 185.109375 C 197.496094 183.363281 198.800781 181.695312 200.28125 180.167969 C 200.9375 179.484375 201.632812 178.851562 202.375 178.261719 C 202.882812 177.863281 203.414062 177.492188 203.980469 177.179688 C 204.335938 176.980469 204.707031 176.820312 205.09375 176.699219 C 205.316406 176.632812 205.539062 176.589844 205.769531 176.574219 C 205.972656 176.558594 206.167969 176.585938 206.359375 176.652344 C 206.671875 176.773438 206.871094 176.996094 206.945312 177.328125 C 206.953125 177.347656 206.960938 177.363281 206.972656 177.378906 L 206.972656 178.167969 C 206.960938 178.195312 206.953125 178.222656 206.945312 178.25 C 206.925781 178.332031 206.917969 178.421875 206.894531 178.503906 C 206.835938 178.691406 206.78125 178.878906 206.710938 179.0625 C 206.484375 179.660156 206.167969 180.210938 205.824219 180.742188 C 205.285156 181.570312 204.671875 182.332031 204.011719 183.058594 C 203.082031 184.089844 202.074219 185.042969 201.019531 185.945312 C 199.691406 187.074219 198.304688 188.132812 196.863281 189.117188 C 196.355469 189.464844 195.839844 189.800781 195.328125 190.144531 C 195.28125 190.171875 195.230469 190.191406 195.203125 190.253906 C 195.25 190.285156 195.292969 190.320312 195.339844 190.351562 C 195.609375 190.527344 195.890625 190.679688 196.183594 190.8125 C 196.796875 191.085938 197.4375 191.273438 198.09375 191.417969 C 198.566406 191.519531 199.042969 191.605469 199.523438 191.667969 C 199.925781 191.722656 200.324219 191.769531 200.726562 191.816406 C 200.960938 191.84375 201.195312 191.863281 201.425781 191.882812 C 201.738281 191.914062 202.054688 191.941406 202.367188 191.964844 C 202.726562 191.988281 203.085938 192.011719 203.445312 192.035156 C 203.910156 192.0625 204.378906 192.089844 204.847656 192.117188 L 205.5 192.15625 C 205.476562 192.167969 205.453125 192.171875 205.425781 192.175781 C 204.957031 192.203125 204.488281 192.230469 204.023438 192.261719 C 203.628906 192.285156 203.234375 192.304688 202.839844 192.332031 C 202.28125 192.375 201.726562 192.421875 201.167969 192.472656 C 200.71875 192.515625 200.265625 192.566406 199.816406 192.621094 C 199.253906 192.6875 198.699219 192.785156 198.144531 192.902344 C 197.558594 193.027344 196.984375 193.1875 196.425781 193.417969 C 196.023438 193.574219 195.644531 193.773438 195.285156 194.015625 C 195.253906 194.039062 195.210938 194.046875 195.210938 194.105469 C 195.257812 194.136719 195.304688 194.171875 195.355469 194.203125 C 196.402344 194.882812 197.429688 195.59375 198.433594 196.332031 C 199.863281 197.390625 201.238281 198.511719 202.523438 199.746094 C 203.367188 200.550781 204.167969 201.398438 204.898438 202.3125 C 205.390625 202.929688 205.847656 203.574219 206.234375 204.265625 C 206.421875 204.59375 206.582031 204.933594 206.71875 205.289062 C 206.820312 205.558594 206.917969 205.828125 206.949219 206.117188 C 206.949219 206.128906 206.964844 206.140625 206.972656 206.152344 Z M 206.972656 206.152344 " fill-opacity="1" fill-rule="nonzero"/></g></svg>