<svg xmlns="http://www.w3.org/2000/svg" xmlns:xlink="http://www.w3.org/1999/xlink" width="50" zoomAndPan="magnify" viewBox="0 0 37.5 37.499999" height="50" preserveAspectRatio="xMidYMid meet" version="1.0"><defs><clipPath id="e3c60be073"><path d="M 0.714844 0.09375 L 36.242188 0.09375 L 36.242188 37 L 0.714844 37 Z M 0.714844 0.09375 " clip-rule="nonzero"/></clipPath><clipPath id="c503c38444"><path d="M 15.457031 15.34375 L 21.378906 15.34375 L 21.378906 22 L 15.457031 22 Z M 15.457031 15.34375 " clip-rule="nonzero"/></clipPath></defs><g clip-path="url(#e3c60be073)"><path fill="#f5edde" d="M 36.285156 34.941406 L 36.285156 35.867188 C 36.273438 35.886719 36.261719 35.90625 36.253906 35.929688 C 36.175781 36.316406 35.945312 36.570312 35.585938 36.71875 C 35.421875 36.785156 35.246094 36.820312 35.070312 36.824219 C 34.800781 36.828125 34.535156 36.800781 34.277344 36.734375 C 33.808594 36.621094 33.367188 36.4375 32.9375 36.214844 C 32.316406 35.894531 31.726562 35.519531 31.167969 35.097656 C 30.109375 34.3125 29.144531 33.421875 28.226562 32.480469 C 27.144531 31.367188 26.140625 30.183594 25.1875 28.960938 C 23.835938 27.222656 22.597656 25.410156 21.433594 23.546875 C 21.230469 23.222656 21.03125 22.890625 20.828125 22.5625 C 20.808594 22.53125 20.796875 22.484375 20.734375 22.492188 C 20.695312 22.550781 20.65625 22.617188 20.617188 22.683594 C 20.320312 23.203125 20.078125 23.75 19.898438 24.320312 C 19.546875 25.394531 19.34375 26.5 19.191406 27.617188 C 19.132812 28.050781 19.082031 28.484375 19.039062 28.921875 C 18.988281 29.410156 18.945312 29.898438 18.902344 30.386719 C 18.871094 30.765625 18.847656 31.144531 18.824219 31.523438 C 18.789062 32.023438 18.757812 32.527344 18.730469 33.027344 C 18.710938 33.371094 18.695312 33.714844 18.683594 34.058594 C 18.648438 34.824219 18.613281 35.59375 18.582031 36.363281 C 18.570312 36.578125 18.554688 36.789062 18.542969 37 C 18.53125 36.972656 18.523438 36.945312 18.523438 36.914062 C 18.488281 36.109375 18.457031 35.308594 18.417969 34.503906 C 18.382812 33.699219 18.34375 32.894531 18.300781 32.089844 C 18.289062 31.875 18.277344 31.664062 18.261719 31.449219 C 18.21875 30.910156 18.179688 30.363281 18.132812 29.820312 C 18.085938 29.304688 18.035156 28.785156 17.976562 28.265625 C 17.90625 27.652344 17.816406 27.035156 17.703125 26.425781 C 17.582031 25.734375 17.417969 25.058594 17.207031 24.390625 C 17.011719 23.78125 16.769531 23.191406 16.445312 22.636719 C 16.410156 22.582031 16.375 22.527344 16.332031 22.460938 C 16.296875 22.511719 16.265625 22.546875 16.242188 22.585938 C 16.109375 22.804688 15.976562 23.023438 15.84375 23.238281 C 14.519531 25.378906 13.101562 27.457031 11.53125 29.425781 C 10.488281 30.738281 9.378906 31.996094 8.171875 33.164062 C 7.40625 33.902344 6.605469 34.605469 5.738281 35.230469 C 5.191406 35.628906 4.617188 35.980469 4.011719 36.285156 C 3.566406 36.5 3.113281 36.679688 2.625 36.769531 C 2.332031 36.824219 2.039062 36.847656 1.742188 36.789062 C 1.269531 36.695312 0.960938 36.417969 0.828125 35.953125 C 0.808594 35.878906 0.792969 35.800781 0.785156 35.726562 C 0.773438 35.660156 0.765625 35.597656 0.714844 35.546875 L 0.714844 35.332031 C 0.765625 35.277344 0.777344 35.207031 0.785156 35.136719 C 0.816406 34.835938 0.882812 34.542969 0.980469 34.253906 C 1.167969 33.683594 1.433594 33.148438 1.734375 32.632812 C 2.175781 31.878906 2.671875 31.167969 3.222656 30.492188 C 4.101562 29.394531 5.074219 28.378906 6.09375 27.417969 C 7.632812 25.964844 9.277344 24.640625 10.988281 23.390625 C 12.164062 22.53125 13.367188 21.710938 14.59375 20.929688 C 14.648438 20.894531 14.710938 20.867188 14.75 20.820312 C 14.742188 20.800781 14.742188 20.789062 14.734375 20.78125 C 14.691406 20.75 14.648438 20.71875 14.605469 20.6875 C 14.222656 20.4375 13.820312 20.226562 13.394531 20.054688 C 12.53125 19.699219 11.632812 19.472656 10.71875 19.308594 C 10.203125 19.21875 9.6875 19.140625 9.171875 19.070312 C 8.839844 19.023438 8.503906 18.988281 8.167969 18.953125 C 7.855469 18.921875 7.542969 18.898438 7.230469 18.871094 C 6.859375 18.835938 6.488281 18.804688 6.117188 18.777344 C 5.671875 18.746094 5.230469 18.71875 4.785156 18.695312 C 4.191406 18.65625 3.59375 18.625 2.996094 18.589844 C 2.851562 18.582031 2.707031 18.566406 2.5625 18.554688 C 2.699219 18.535156 2.835938 18.523438 2.972656 18.519531 C 3.550781 18.484375 4.128906 18.453125 4.707031 18.417969 C 5.109375 18.394531 5.511719 18.371094 5.914062 18.339844 C 6.425781 18.304688 6.941406 18.261719 7.453125 18.214844 C 7.964844 18.167969 8.480469 18.117188 8.988281 18.058594 C 9.652344 17.976562 10.316406 17.878906 10.972656 17.75 C 11.652344 17.621094 12.320312 17.441406 12.976562 17.214844 C 13.546875 17.015625 14.089844 16.75 14.597656 16.421875 C 14.652344 16.386719 14.710938 16.359375 14.757812 16.296875 C 14.730469 16.273438 14.703125 16.25 14.675781 16.230469 C 14.5625 16.15625 14.445312 16.082031 14.332031 16.007812 C 12.277344 14.679688 10.285156 13.265625 8.394531 11.710938 C 7.027344 10.589844 5.726562 9.402344 4.519531 8.109375 C 3.714844 7.246094 2.957031 6.34375 2.292969 5.367188 C 1.871094 4.746094 1.488281 4.101562 1.191406 3.40625 C 0.992188 2.9375 0.832031 2.457031 0.777344 1.945312 C 0.769531 1.882812 0.734375 1.820312 0.714844 1.761719 L 0.714844 1.546875 C 0.769531 1.5 0.777344 1.4375 0.785156 1.371094 C 0.800781 1.234375 0.835938 1.105469 0.890625 0.976562 C 1 0.707031 1.191406 0.515625 1.464844 0.402344 C 1.582031 0.351562 1.710938 0.320312 1.839844 0.304688 C 2.144531 0.261719 2.441406 0.296875 2.738281 0.359375 C 3.191406 0.460938 3.617188 0.632812 4.035156 0.835938 C 4.707031 1.167969 5.328125 1.574219 5.929688 2.023438 C 6.992188 2.8125 7.960938 3.707031 8.882812 4.65625 C 9.820312 5.621094 10.695312 6.636719 11.535156 7.691406 C 12.910156 9.421875 14.171875 11.230469 15.355469 13.097656 C 15.652344 13.566406 15.941406 14.042969 16.234375 14.515625 C 16.261719 14.554688 16.277344 14.613281 16.34375 14.628906 C 16.378906 14.570312 16.417969 14.515625 16.449219 14.460938 C 16.707031 14.007812 16.925781 13.535156 17.097656 13.042969 C 17.464844 12 17.679688 10.921875 17.839844 9.832031 C 17.898438 9.429688 17.953125 9.023438 17.996094 8.617188 C 18.046875 8.1875 18.085938 7.757812 18.125 7.328125 C 18.160156 6.980469 18.183594 6.632812 18.210938 6.285156 C 18.242188 5.816406 18.273438 5.351562 18.304688 4.882812 C 18.324219 4.589844 18.335938 4.292969 18.351562 3.996094 C 18.382812 3.394531 18.414062 2.792969 18.441406 2.1875 C 18.472656 1.523438 18.496094 0.851562 18.523438 0.183594 C 18.523438 0.15625 18.527344 0.128906 18.53125 0.101562 C 18.550781 0.289062 18.566406 0.480469 18.574219 0.667969 C 18.601562 1.21875 18.621094 1.769531 18.648438 2.316406 C 18.691406 3.246094 18.738281 4.171875 18.792969 5.101562 C 18.828125 5.761719 18.882812 6.425781 18.933594 7.085938 C 18.984375 7.78125 19.058594 8.476562 19.148438 9.167969 C 19.238281 9.902344 19.355469 10.632812 19.511719 11.355469 C 19.648438 12.015625 19.835938 12.664062 20.074219 13.296875 C 20.238281 13.730469 20.441406 14.144531 20.679688 14.539062 C 20.699219 14.574219 20.707031 14.621094 20.769531 14.621094 C 20.828125 14.558594 20.863281 14.476562 20.910156 14.402344 C 21.761719 13.003906 22.65625 11.625 23.601562 10.285156 C 25.042969 8.242188 26.597656 6.289062 28.351562 4.5 C 29.128906 3.699219 29.953125 2.957031 30.832031 2.265625 C 31.433594 1.796875 32.0625 1.363281 32.738281 1 C 33.15625 0.765625 33.597656 0.578125 34.058594 0.4375 C 34.316406 0.355469 34.585938 0.308594 34.859375 0.289062 C 35.097656 0.269531 35.332031 0.300781 35.558594 0.382812 C 35.925781 0.523438 36.164062 0.78125 36.25 1.171875 C 36.257812 1.195312 36.269531 1.210938 36.285156 1.230469 L 36.285156 2.15625 C 36.269531 2.1875 36.257812 2.21875 36.25 2.25 C 36.230469 2.351562 36.21875 2.453125 36.191406 2.546875 C 36.125 2.769531 36.054688 2.988281 35.972656 3.203125 C 35.703125 3.902344 35.332031 4.550781 34.921875 5.171875 C 34.285156 6.140625 33.554688 7.035156 32.773438 7.886719 C 31.667969 9.09375 30.476562 10.210938 29.226562 11.265625 C 27.648438 12.59375 26.007812 13.832031 24.296875 14.984375 C 23.695312 15.390625 23.082031 15.785156 22.476562 16.1875 C 22.421875 16.222656 22.359375 16.242188 22.328125 16.3125 C 22.382812 16.351562 22.4375 16.390625 22.488281 16.425781 C 22.808594 16.632812 23.140625 16.816406 23.488281 16.96875 C 24.21875 17.292969 24.976562 17.507812 25.753906 17.675781 C 26.316406 17.800781 26.878906 17.898438 27.449219 17.972656 C 27.925781 18.035156 28.402344 18.089844 28.878906 18.144531 C 29.15625 18.175781 29.433594 18.203125 29.707031 18.226562 C 30.078125 18.257812 30.453125 18.289062 30.824219 18.316406 C 31.25 18.347656 31.675781 18.375 32.097656 18.402344 C 32.65625 18.4375 33.210938 18.46875 33.765625 18.5 L 34.535156 18.542969 C 34.507812 18.558594 34.480469 18.5625 34.449219 18.566406 C 33.894531 18.597656 33.339844 18.632812 32.785156 18.667969 C 32.316406 18.695312 31.851562 18.71875 31.382812 18.75 C 30.722656 18.800781 30.0625 18.851562 29.402344 18.914062 C 28.867188 18.964844 28.332031 19.027344 27.796875 19.089844 C 27.132812 19.167969 26.472656 19.277344 25.816406 19.417969 C 25.121094 19.566406 24.4375 19.753906 23.777344 20.019531 C 23.300781 20.207031 22.851562 20.441406 22.425781 20.722656 C 22.390625 20.75 22.335938 20.761719 22.335938 20.828125 C 22.390625 20.867188 22.449219 20.90625 22.511719 20.945312 C 23.75 21.738281 24.96875 22.570312 26.160156 23.4375 C 27.851562 24.675781 29.480469 25.992188 31.007812 27.4375 C 32.007812 28.378906 32.960938 29.371094 33.824219 30.441406 C 34.40625 31.164062 34.949219 31.921875 35.410156 32.730469 C 35.628906 33.117188 35.824219 33.515625 35.984375 33.929688 C 36.105469 34.246094 36.222656 34.5625 36.257812 34.898438 C 36.257812 34.917969 36.277344 34.929688 36.285156 34.941406 Z M 36.285156 34.941406 " fill-opacity="1" fill-rule="nonzero"/></g><g clip-path="url(#c503c38444)"><path fill="#f5edde" d="M 21.539062 21.304688 L 21.539062 21.460938 C 21.539062 21.464844 21.535156 21.46875 21.535156 21.472656 C 21.519531 21.539062 21.480469 21.582031 21.421875 21.605469 C 21.390625 21.617188 21.363281 21.625 21.332031 21.625 C 21.285156 21.625 21.242188 21.621094 21.195312 21.609375 C 21.117188 21.589844 21.039062 21.558594 20.96875 21.519531 C 20.863281 21.464844 20.761719 21.402344 20.664062 21.328125 C 20.484375 21.195312 20.320312 21.042969 20.160156 20.882812 C 19.976562 20.691406 19.804688 20.488281 19.640625 20.28125 C 19.410156 19.984375 19.199219 19.671875 19 19.355469 C 18.964844 19.300781 18.929688 19.242188 18.898438 19.1875 C 18.894531 19.179688 18.890625 19.171875 18.878906 19.175781 C 18.875 19.183594 18.867188 19.195312 18.859375 19.207031 C 18.808594 19.296875 18.769531 19.390625 18.738281 19.488281 C 18.679688 19.671875 18.644531 19.859375 18.617188 20.050781 C 18.605469 20.125 18.597656 20.199219 18.589844 20.273438 C 18.582031 20.355469 18.574219 20.441406 18.566406 20.523438 C 18.5625 20.589844 18.558594 20.652344 18.554688 20.71875 C 18.546875 20.804688 18.542969 20.890625 18.539062 20.976562 C 18.535156 21.035156 18.53125 21.09375 18.53125 21.152344 C 18.523438 21.285156 18.519531 21.414062 18.511719 21.546875 C 18.511719 21.582031 18.507812 21.617188 18.507812 21.65625 C 18.503906 21.652344 18.503906 21.644531 18.503906 21.640625 C 18.496094 21.503906 18.492188 21.367188 18.484375 21.226562 C 18.480469 21.089844 18.472656 20.953125 18.464844 20.816406 C 18.460938 20.777344 18.460938 20.742188 18.457031 20.707031 C 18.449219 20.613281 18.445312 20.519531 18.4375 20.429688 C 18.429688 20.339844 18.417969 20.25 18.410156 20.160156 C 18.398438 20.054688 18.382812 19.953125 18.363281 19.847656 C 18.339844 19.730469 18.3125 19.613281 18.277344 19.5 C 18.246094 19.394531 18.203125 19.292969 18.148438 19.199219 C 18.140625 19.191406 18.136719 19.179688 18.128906 19.167969 C 18.121094 19.175781 18.117188 19.183594 18.113281 19.191406 C 18.089844 19.226562 18.066406 19.265625 18.042969 19.300781 C 17.816406 19.667969 17.574219 20.023438 17.308594 20.359375 C 17.128906 20.585938 16.9375 20.800781 16.734375 21 C 16.601562 21.125 16.464844 21.246094 16.316406 21.351562 C 16.222656 21.421875 16.125 21.480469 16.019531 21.53125 C 15.945312 21.570312 15.867188 21.601562 15.785156 21.617188 C 15.734375 21.625 15.683594 21.628906 15.632812 21.617188 C 15.550781 21.601562 15.5 21.554688 15.476562 21.476562 C 15.472656 21.464844 15.472656 21.449219 15.46875 21.4375 C 15.46875 21.425781 15.464844 21.414062 15.457031 21.40625 L 15.457031 21.371094 C 15.464844 21.359375 15.46875 21.347656 15.46875 21.335938 C 15.476562 21.285156 15.484375 21.234375 15.503906 21.1875 C 15.535156 21.089844 15.582031 20.996094 15.632812 20.90625 C 15.707031 20.78125 15.792969 20.65625 15.886719 20.542969 C 16.035156 20.355469 16.203125 20.179688 16.378906 20.015625 C 16.640625 19.769531 16.921875 19.542969 17.214844 19.328125 C 17.414062 19.179688 17.621094 19.039062 17.832031 18.90625 C 17.839844 18.902344 17.851562 18.898438 17.855469 18.886719 C 17.855469 18.886719 17.855469 18.882812 17.855469 18.882812 C 17.847656 18.875 17.839844 18.871094 17.832031 18.867188 C 17.765625 18.824219 17.699219 18.785156 17.625 18.757812 C 17.476562 18.695312 17.324219 18.65625 17.167969 18.628906 C 17.082031 18.613281 16.992188 18.601562 16.902344 18.589844 C 16.847656 18.582031 16.789062 18.574219 16.730469 18.570312 C 16.679688 18.5625 16.625 18.558594 16.570312 18.554688 C 16.507812 18.550781 16.445312 18.542969 16.382812 18.539062 C 16.304688 18.535156 16.230469 18.53125 16.152344 18.523438 C 16.050781 18.519531 15.949219 18.511719 15.847656 18.507812 C 15.824219 18.503906 15.796875 18.503906 15.773438 18.5 C 15.796875 18.496094 15.820312 18.496094 15.84375 18.496094 C 15.941406 18.488281 16.042969 18.484375 16.140625 18.476562 C 16.210938 18.472656 16.277344 18.46875 16.347656 18.464844 C 16.433594 18.457031 16.523438 18.449219 16.609375 18.441406 C 16.699219 18.433594 16.785156 18.425781 16.871094 18.414062 C 16.984375 18.402344 17.097656 18.386719 17.210938 18.363281 C 17.328125 18.339844 17.441406 18.3125 17.554688 18.273438 C 17.652344 18.238281 17.746094 18.191406 17.832031 18.136719 C 17.839844 18.128906 17.851562 18.125 17.859375 18.113281 C 17.855469 18.109375 17.847656 18.105469 17.84375 18.101562 C 17.824219 18.089844 17.804688 18.078125 17.785156 18.066406 C 17.433594 17.839844 17.09375 17.597656 16.769531 17.332031 C 16.539062 17.140625 16.3125 16.9375 16.109375 16.714844 C 15.96875 16.566406 15.839844 16.414062 15.726562 16.246094 C 15.65625 16.140625 15.589844 16.027344 15.539062 15.910156 C 15.503906 15.832031 15.476562 15.746094 15.46875 15.660156 C 15.46875 15.648438 15.460938 15.640625 15.457031 15.628906 L 15.457031 15.59375 C 15.46875 15.585938 15.46875 15.574219 15.46875 15.5625 C 15.472656 15.539062 15.476562 15.515625 15.488281 15.496094 C 15.507812 15.449219 15.539062 15.417969 15.585938 15.398438 C 15.605469 15.386719 15.628906 15.382812 15.648438 15.378906 C 15.703125 15.371094 15.753906 15.378906 15.804688 15.390625 C 15.882812 15.40625 15.953125 15.4375 16.023438 15.472656 C 16.140625 15.527344 16.246094 15.597656 16.347656 15.675781 C 16.53125 15.808594 16.695312 15.960938 16.855469 16.125 C 17.015625 16.289062 17.164062 16.464844 17.308594 16.644531 C 17.542969 16.9375 17.757812 17.25 17.960938 17.566406 C 18.011719 17.648438 18.0625 17.730469 18.113281 17.808594 C 18.117188 17.816406 18.117188 17.828125 18.128906 17.828125 C 18.136719 17.820312 18.144531 17.8125 18.148438 17.800781 C 18.191406 17.722656 18.230469 17.644531 18.257812 17.558594 C 18.320312 17.378906 18.359375 17.195312 18.386719 17.007812 C 18.394531 16.941406 18.40625 16.871094 18.414062 16.800781 C 18.421875 16.726562 18.429688 16.65625 18.433594 16.582031 C 18.441406 16.523438 18.445312 16.460938 18.449219 16.402344 C 18.453125 16.324219 18.460938 16.242188 18.464844 16.164062 C 18.46875 16.113281 18.46875 16.0625 18.472656 16.011719 C 18.480469 15.910156 18.484375 15.804688 18.488281 15.703125 C 18.492188 15.589844 18.5 15.472656 18.503906 15.359375 C 18.503906 15.355469 18.503906 15.351562 18.503906 15.34375 C 18.507812 15.378906 18.511719 15.410156 18.511719 15.441406 C 18.515625 15.535156 18.519531 15.628906 18.523438 15.722656 C 18.53125 15.882812 18.539062 16.042969 18.546875 16.199219 C 18.554688 16.3125 18.5625 16.425781 18.574219 16.539062 C 18.582031 16.660156 18.59375 16.777344 18.609375 16.894531 C 18.625 17.019531 18.644531 17.144531 18.671875 17.269531 C 18.695312 17.382812 18.726562 17.492188 18.769531 17.601562 C 18.796875 17.675781 18.832031 17.746094 18.871094 17.816406 C 18.875 17.820312 18.875 17.828125 18.886719 17.828125 C 18.898438 17.816406 18.902344 17.804688 18.910156 17.792969 C 19.054688 17.550781 19.210938 17.316406 19.371094 17.085938 C 19.617188 16.738281 19.882812 16.402344 20.183594 16.097656 C 20.316406 15.960938 20.457031 15.832031 20.605469 15.714844 C 20.710938 15.636719 20.816406 15.5625 20.933594 15.5 C 21.003906 15.460938 21.082031 15.425781 21.160156 15.402344 C 21.203125 15.390625 21.25 15.378906 21.296875 15.378906 C 21.335938 15.375 21.375 15.378906 21.414062 15.394531 C 21.480469 15.417969 21.519531 15.460938 21.535156 15.527344 C 21.535156 15.53125 21.539062 15.535156 21.539062 15.539062 L 21.539062 15.695312 C 21.539062 15.703125 21.535156 15.707031 21.535156 15.714844 C 21.53125 15.730469 21.527344 15.746094 21.523438 15.765625 C 21.511719 15.800781 21.5 15.839844 21.488281 15.875 C 21.441406 15.996094 21.378906 16.105469 21.308594 16.210938 C 21.199219 16.378906 21.074219 16.53125 20.941406 16.675781 C 20.75 16.882812 20.546875 17.074219 20.332031 17.253906 C 20.0625 17.480469 19.78125 17.691406 19.488281 17.890625 C 19.386719 17.960938 19.28125 18.027344 19.179688 18.097656 C 19.167969 18.101562 19.160156 18.105469 19.152344 18.117188 C 19.164062 18.125 19.171875 18.132812 19.179688 18.136719 C 19.234375 18.171875 19.292969 18.203125 19.351562 18.230469 C 19.476562 18.285156 19.605469 18.320312 19.738281 18.351562 C 19.835938 18.371094 19.933594 18.390625 20.027344 18.402344 C 20.109375 18.410156 20.191406 18.421875 20.273438 18.429688 C 20.320312 18.4375 20.367188 18.441406 20.414062 18.445312 C 20.480469 18.449219 20.542969 18.457031 20.605469 18.460938 C 20.679688 18.464844 20.75 18.46875 20.824219 18.476562 C 20.917969 18.480469 21.015625 18.484375 21.109375 18.492188 L 21.242188 18.5 C 21.238281 18.5 21.230469 18.503906 21.226562 18.503906 C 21.132812 18.507812 21.035156 18.515625 20.941406 18.519531 C 20.863281 18.523438 20.78125 18.527344 20.703125 18.535156 C 20.589844 18.542969 20.476562 18.550781 20.363281 18.5625 C 20.269531 18.570312 20.179688 18.582031 20.089844 18.59375 C 19.976562 18.605469 19.863281 18.625 19.75 18.648438 C 19.632812 18.675781 19.515625 18.707031 19.402344 18.75 C 19.320312 18.785156 19.242188 18.824219 19.171875 18.871094 C 19.164062 18.875 19.15625 18.878906 19.15625 18.890625 C 19.164062 18.894531 19.175781 18.902344 19.183594 18.910156 C 19.398438 19.046875 19.605469 19.1875 19.808594 19.335938 C 20.097656 19.546875 20.375 19.773438 20.636719 20.019531 C 20.808594 20.179688 20.972656 20.351562 21.117188 20.535156 C 21.21875 20.65625 21.3125 20.785156 21.390625 20.925781 C 21.429688 20.992188 21.460938 21.058594 21.488281 21.128906 C 21.507812 21.183594 21.527344 21.238281 21.535156 21.296875 C 21.535156 21.296875 21.539062 21.300781 21.539062 21.304688 Z M 21.539062 21.304688 " fill-opacity="1" fill-rule="nonzero"/></g></svg>